<?xml version="1.0" encoding="UTF-8" standalone="no"?><!DOCTYPE svg PUBLIC "-//W3C//DTD SVG 1.1//EN" "http://www.w3.org/Graphics/SVG/1.1/DTD/svg11.dtd"><svg width="100%" height="100%" viewBox="0 0 512 512" version="1.1" xmlns="http://www.w3.org/2000/svg" xmlns:xlink="http://www.w3.org/1999/xlink" xml:space="preserve" xmlns:serif="http://www.serif.com/" style="fill-rule:evenodd;clip-rule:evenodd;stroke-linejoin:round;stroke-miterlimit:2;"><path d="M473.6,46.144c-24.266,-20.29 -56.352,-28.75 -87.467,-23.061l-81.536,14.805c-18.821,3.456 -35.943,13.145 -48.597,27.499c-12.687,-14.379 -29.859,-24.069 -48.725,-27.499l-81.408,-14.805c-6.334,-1.159 -12.761,-1.742 -19.2,-1.742c-58.513,0 -106.663,48.147 -106.667,106.66l0,230.251c0.003,51.337 37.066,95.749 87.573,104.939l134.101,24.384c22.697,4.124 45.953,4.124 68.651,-0l134.208,-24.384c50.466,-9.235 87.474,-53.635 87.467,-104.939l0,-230.251c0.02,-31.621 -14.071,-61.657 -38.4,-81.856Zm-238.933,400.32c-1.792,-0.256 -3.584,-0.555 -5.376,-0.875l-134.08,-24.363c-30.309,-5.514 -52.549,-32.169 -52.544,-62.976l-0,-230.251c-0,-35.109 28.891,-64 64,-64c3.863,0.009 7.718,0.359 11.52,1.045l81.493,14.933c20.151,3.687 34.942,21.392 34.987,41.877l0,324.608Zm234.667,-88.213c0.005,30.807 -22.235,57.462 -52.544,62.976l-134.08,24.363c-1.792,0.32 -3.584,0.619 -5.376,0.875l0,-324.608c-0.003,-20.538 14.823,-38.308 35.029,-41.984l81.515,-14.933c3.78,-0.688 7.614,-1.034 11.456,-1.034c35.109,-0 64,28.891 64,64c0,0.032 -0,0.063 -0,0.095l0,230.251Z" style="fill:#e2e8f0;fill-rule:nonzero;"/></svg>