<?xml version="1.0" encoding="UTF-8" standalone="no"?><!DOCTYPE svg PUBLIC "-//W3C//DTD SVG 1.1//EN" "http://www.w3.org/Graphics/SVG/1.1/DTD/svg11.dtd"><svg width="100%" height="100%" viewBox="0 0 512 512" version="1.1" xmlns="http://www.w3.org/2000/svg" xmlns:xlink="http://www.w3.org/1999/xlink" xml:space="preserve" xmlns:serif="http://www.serif.com/" style="fill-rule:evenodd;clip-rule:evenodd;stroke-linejoin:round;stroke-miterlimit:2;"><path d="M256,256c70.219,0 128,-57.781 128,-128c0,-70.219 -57.781,-128 -128,-128c-70.219,-0 -128,57.781 -128,128c0.07,70.192 57.808,127.93 128,128Zm0,-213.333c46.812,0 85.333,38.521 85.333,85.333c0,46.812 -38.521,85.333 -85.333,85.333c-46.812,0 -85.333,-38.521 -85.333,-85.333c0,-46.812 38.521,-85.333 85.333,-85.333Z" style="fill:#e2e8f0;fill-rule:nonzero;"/><path d="M256,298.667c-105.284,0.117 -191.883,86.716 -192,192c0,11.703 9.63,21.333 21.333,21.333c11.703,0 21.333,-9.63 21.333,-21.333c-0,-81.922 67.411,-149.333 149.333,-149.333c81.922,0 149.333,67.411 149.333,149.333c0,11.703 9.63,21.333 21.333,21.333c11.703,0 21.333,-9.63 21.333,-21.333c-0.117,-105.284 -86.716,-191.883 -192,-192Z" style="fill:#e2e8f0;fill-rule:nonzero;"/></svg>